<?xml version="1.0" encoding="utf-8"?>
<!-- Generator: Adobe Illustrator 27.9.0, SVG Export Plug-In . SVG Version: 6.00 Build 0)  -->
<svg version="1.1" id="Logos" xmlns="http://www.w3.org/2000/svg" xmlns:xlink="http://www.w3.org/1999/xlink" x="0px" y="0px"
 viewBox="0 0 919.6 350" style="enable-background:new 0 0 919.6 350;" xml:space="preserve">
<style type="text/css">
    .st0{fill:#FFFFFF;}
    .st1{fill:#EE0000;}
</style>
<g>
    <g>
        <path class="st0" d="M223,156.4v-9.7h62.1v9.7h-25.6v63.1h-10.9v-63.1H223z"/>
        <path class="st0" d="M287.9,219.5v-52.9h10.4v6.6c1.7-2.6,3.9-4.6,6.4-5.8c2.6-1.2,5.2-1.9,8-1.9c1.2,0,2.2,0.1,3.1,0.2
            c0.9,0.1,1.6,0.3,2.3,0.6v9.4c-0.8-0.3-1.8-0.5-2.9-0.8c-1.1-0.2-2.2-0.4-3.3-0.4c-2.8,0-5.4,0.7-7.8,2.2
            c-2.4,1.5-4.4,3.9-5.8,7.3v35.5H287.9z"/>
        <path class="st0" d="M336.9,166.6v31.5c0,4.1,1.2,7.3,3.5,9.8c2.4,2.4,5.6,3.6,9.7,3.6c2.8,0,5.3-0.6,7.5-1.8
            c2.2-1.2,4.1-2.9,5.5-5.1v-38.1h10.4v52.9h-10.4v-5.3c-2.1,2.1-4.5,3.7-7.1,4.7c-2.7,1.1-5.6,1.6-8.8,1.6c-6,0-11-1.9-14.8-5.8
            c-3.8-3.9-5.8-8.8-5.8-14.9v-33.3H336.9z"/>
        <path class="st0" d="M380.7,212.7l5.6-6.9c2.2,1.9,4.8,3.4,7.7,4.7c2.9,1.3,6.1,1.9,9.5,1.9c4.2,0,7.3-0.8,9.5-2.3
            c2.1-1.6,3.2-3.4,3.2-5.6c0-1.9-0.7-3.4-2-4.5c-1.4-1.1-3.5-1.9-6.5-2.3l-9.6-1.4c-5.2-0.7-9.1-2.3-11.8-4.8s-4-5.8-4-9.9
            c0-4.8,1.9-8.6,5.8-11.6c3.9-2.9,8.8-4.4,14.9-4.4c4,0,7.7,0.6,11.2,1.7c3.5,1.1,6.9,2.8,10.1,5l-5.3,6.9
            c-2.6-1.7-5.2-3.1-7.9-4.1c-2.7-1-5.7-1.5-8.8-1.5c-3.1,0-5.6,0.6-7.6,1.9c-2,1.3-3,3-3,5.3c0,1.9,0.7,3.4,2,4.4
            c1.4,1,3.6,1.8,6.7,2.2l9.6,1.4c5.3,0.8,9.3,2.4,12,4.9c2.7,2.5,4,5.8,4,9.8c0,2.4-0.6,4.6-1.7,6.6c-1.1,2-2.7,3.8-4.7,5.3
            c-2,1.5-4.3,2.7-7,3.5s-5.6,1.2-8.7,1.2c-4.4,0-8.6-0.7-12.6-2C387.2,217.2,383.7,215.2,380.7,212.7z"/>
        <path class="st0" d="M439.9,206.4v-31.1h-11.2v-8.7h11.2v-13.5l10.3-2.5v16h15.6v8.7h-15.6V204c0,2.7,0.6,4.6,1.8,5.7
            c1.2,1.1,3.2,1.7,6,1.7c1.5,0,2.8-0.1,4-0.3c1.1-0.2,2.3-0.5,3.6-1v8.7c-1.5,0.5-3.1,0.9-4.9,1.1c-1.8,0.3-3.5,0.4-5,0.4
            c-5.1,0-9-1.2-11.8-3.6S439.9,211,439.9,206.4z"/>
        <path class="st0" d="M469.9,193c0-3.7,0.7-7.3,2-10.6c1.4-3.3,3.2-6.2,5.6-8.7c2.4-2.5,5.2-4.4,8.4-5.8c3.2-1.4,6.7-2.1,10.5-2.1
            c3.6,0,7,0.7,10.1,2.1c3.2,1.4,5.9,3.4,8.1,5.8c2.3,2.5,4,5.4,5.4,8.8c1.3,3.4,2,7,2,10.9v3h-41.8c0.7,4.4,2.7,8,6,10.9
            c3.3,2.9,7.3,4.3,11.9,4.3c2.6,0,5-0.4,7.4-1.2c2.4-0.8,4.4-2,6-3.4l6.7,6.6c-3.1,2.4-6.3,4.2-9.6,5.3c-3.3,1.1-6.9,1.7-10.9,1.7
            c-3.9,0-7.5-0.7-10.9-2.1c-3.4-1.4-6.3-3.3-8.8-5.8c-2.5-2.4-4.5-5.3-5.9-8.7C470.6,200.5,469.9,196.9,469.9,193z M496.2,174.5
            c-4,0-7.5,1.3-10.4,4c-2.9,2.6-4.8,6-5.5,10.2h31.4c-0.7-4-2.5-7.4-5.4-10.1C503.4,175.9,500.1,174.5,496.2,174.5z"/>
        <path class="st0" d="M572.7,219.5v-5c-2.2,1.9-4.7,3.3-7.5,4.3c-2.8,1-5.7,1.5-8.7,1.5c-3.7,0-7.2-0.7-10.5-2.1
            c-3.3-1.4-6.1-3.4-8.5-5.8c-2.4-2.5-4.3-5.4-5.7-8.7c-1.4-3.4-2.1-6.9-2.1-10.7s0.7-7.3,2.1-10.6c1.4-3.3,3.3-6.2,5.7-8.7
            c2.4-2.5,5.2-4.4,8.5-5.8c3.3-1.4,6.8-2.1,10.7-2.1c3,0,5.8,0.5,8.5,1.4c2.7,0.9,5.2,2.2,7.4,3.8v-24.2l10.4-2.3v75.1H572.7z
             M539.9,192.9c0,5.2,1.8,9.6,5.3,13.1c3.5,3.5,7.7,5.3,12.7,5.3c3.1,0,5.8-0.6,8.3-1.7s4.6-2.7,6.3-4.6v-24
            c-1.7-1.9-3.8-3.4-6.3-4.5c-2.6-1.1-5.3-1.7-8.3-1.7c-5.1,0-9.4,1.8-12.8,5.3C541.6,183.5,539.9,187.8,539.9,192.9z"/>
        <path class="st0" d="M618.1,219.5v-72.8h33.7c7.1,0,12.9,2,17.3,6.1c4.4,4.1,6.6,9.3,6.6,15.8c0,6.2-2.2,11.4-6.6,15.5
            c-4.4,4.1-10.1,6.1-17.3,6.1H629v29.3H618.1z M650.7,156.3H629V181h21.6c4.4,0,7.8-1.2,10.2-3.5c2.5-2.3,3.7-5.3,3.7-8.9
            c0-3.6-1.2-6.6-3.7-8.8C658.5,157.5,655,156.3,650.7,156.3z"/>
        <path class="st0" d="M685.5,219.5v-52.9h10.4v6.6c1.7-2.6,3.9-4.6,6.4-5.8c2.6-1.2,5.2-1.9,8-1.9c1.2,0,2.2,0.1,3.1,0.2
            c0.9,0.1,1.6,0.3,2.3,0.6v9.4c-0.8-0.3-1.8-0.5-2.9-0.8c-1.1-0.2-2.2-0.4-3.3-0.4c-2.8,0-5.4,0.7-7.8,2.2
            c-2.4,1.5-4.4,3.9-5.8,7.3v35.5H685.5z"/>
        <path class="st0" d="M718.7,193c0-3.8,0.7-7.4,2.1-10.8c1.4-3.4,3.4-6.3,5.9-8.7c2.5-2.5,5.4-4.4,8.8-5.8c3.4-1.4,7-2.1,10.8-2.1
            c3.8,0,7.4,0.7,10.8,2.1c3.4,1.4,6.3,3.4,8.7,5.8c2.5,2.5,4.4,5.4,5.8,8.7c1.4,3.4,2.1,7,2.1,10.8c0,3.9-0.7,7.5-2.1,10.9
            c-1.4,3.4-3.4,6.3-5.8,8.7c-2.5,2.5-5.4,4.4-8.7,5.8c-3.4,1.4-7,2.1-10.8,2.1c-3.8,0-7.4-0.7-10.8-2.1c-3.4-1.4-6.3-3.4-8.8-5.8
            c-2.5-2.5-4.5-5.4-5.9-8.7C719.4,200.5,718.7,196.9,718.7,193z M763.6,193c0-5.1-1.7-9.5-5.1-13c-3.4-3.5-7.5-5.3-12.3-5.3
            s-8.9,1.8-12.3,5.3c-3.4,3.5-5.1,7.9-5.1,13c0,5.1,1.7,9.5,5,13.1c3.4,3.6,7.5,5.4,12.3,5.4c4.8,0,8.9-1.8,12.3-5.4
            C761.9,202.5,763.6,198.2,763.6,193z"/>
        <path class="st0" d="M776,166.6h12.3v-8c0-5.3,1.5-9.5,4.6-12.5c3-3,7.5-4.5,13.4-4.5c1.3,0,2.6,0.1,3.9,0.3
            c1.3,0.2,2.5,0.4,3.6,0.7v9c-1.2-0.3-2.3-0.6-3.2-0.7c-1-0.1-2.1-0.2-3.3-0.2c-2.9,0-5.1,0.7-6.5,2c-1.4,1.3-2.1,3.4-2.1,6.2v7.8
            h15.2v8.7h-15.2v44.2h-10.3v-44.2H776V166.6z"/>
        <path class="st0" d="M826.7,158.1c-1.7,0-3.2-0.6-4.5-1.9c-1.3-1.3-1.9-2.8-1.9-4.5c0-1.7,0.6-3.2,1.9-4.5
            c1.3-1.3,2.8-1.9,4.5-1.9c1.7,0,3.2,0.6,4.5,1.9c1.2,1.3,1.9,2.8,1.9,4.5c0,1.7-0.6,3.2-1.9,4.5
            C830,157.4,828.5,158.1,826.7,158.1z M831.9,166.6v52.9h-10.4v-52.9H831.9z"/>
        <path class="st0" d="M854.4,144.5v75.1H844v-72.8L854.4,144.5z"/>
        <path class="st0" d="M864.2,193c0-3.7,0.7-7.3,2-10.6c1.4-3.3,3.2-6.2,5.6-8.7c2.4-2.5,5.2-4.4,8.4-5.8c3.2-1.4,6.7-2.1,10.5-2.1
            c3.6,0,7,0.7,10.1,2.1c3.2,1.4,5.9,3.4,8.1,5.8c2.3,2.5,4,5.4,5.4,8.8c1.3,3.4,2,7,2,10.9v3h-41.8c0.7,4.4,2.7,8,6,10.9
            c3.3,2.9,7.3,4.3,11.9,4.3c2.6,0,5-0.4,7.4-1.2c2.4-0.8,4.4-2,6-3.4l6.7,6.6c-3.1,2.4-6.3,4.2-9.6,5.3c-3.3,1.1-6.9,1.7-10.9,1.7
            c-3.9,0-7.5-0.7-10.9-2.1c-3.4-1.4-6.3-3.3-8.8-5.8c-2.5-2.4-4.5-5.3-5.9-8.7C864.9,200.5,864.2,196.9,864.2,193z M890.5,174.5
            c-4,0-7.5,1.3-10.4,4c-2.9,2.6-4.8,6-5.5,10.2H906c-0.7-4-2.5-7.4-5.4-10.1C897.7,175.9,894.3,174.5,890.5,174.5z"/>
        <path class="st0" d="M221.4,327.5l30.2-72.8h12.8l29.7,72.8h-11.9l-8.4-21.3h-32.6l-8.5,21.3H221.4z M244.9,297.2h25.4l-12.7-31.9
            L244.9,297.2z"/>
        <path class="st0" d="M300.2,327.5v-52.9h10.4v5.3c2.1-2.1,4.5-3.7,7.1-4.7c2.7-1.1,5.6-1.6,8.8-1.6c6,0,11,1.9,14.8,5.8
            c3.8,3.9,5.8,8.8,5.8,14.9v33.3h-10.3V296c0-4.1-1.2-7.3-3.5-9.8c-2.4-2.4-5.6-3.6-9.7-3.6c-2.8,0-5.3,0.6-7.5,1.8
            c-2.2,1.2-4.1,2.9-5.5,5.1v38.1H300.2z"/>
        <path class="st0" d="M376,328.5c-5.8,0-10.4-1.5-14-4.5c-3.6-3-5.4-6.9-5.4-11.6c0-5.3,2-9.3,6.1-12c4.1-2.7,9.2-4.1,15.3-4.1
            c2.6,0,5.1,0.3,7.5,0.8c2.5,0.5,4.8,1.2,6.9,2.1v-5.6c0-3.7-1.1-6.6-3.3-8.4c-2.2-1.9-5.4-2.8-9.6-2.8c-2.6,0-5.2,0.4-7.9,1.1
            c-2.7,0.8-5.5,1.9-8.6,3.3l-3.8-7.8c3.7-1.7,7.4-3.1,10.9-4c3.5-0.9,7.1-1.4,10.8-1.4c6.8,0,12.1,1.6,15.9,4.9
            c3.8,3.3,5.7,7.9,5.7,14v35h-10.2V323c-2.3,1.9-4.8,3.3-7.5,4.2C382.2,328,379.2,328.5,376,328.5z M366.5,312.1
            c0,2.6,1.1,4.6,3.3,6.2c2.2,1.6,5.1,2.4,8.5,2.4c2.8,0,5.3-0.4,7.7-1.2c2.4-0.8,4.5-2.1,6.3-3.7v-9.3c-1.9-1-4-1.8-6.2-2.3
            c-2.2-0.5-4.7-0.8-7.4-0.8c-3.6,0-6.6,0.8-8.8,2.3C367.7,307.2,366.5,309.4,366.5,312.1z"/>
        <path class="st0" d="M425,252.5v75.1h-10.4v-72.8L425,252.5z"/>
        <path class="st0" d="M450.6,332l1.9-4.4l-21.1-53h11.4l15.5,40.5l17.1-40.5h11.2l-25.3,58.7c-2.4,5.4-5.1,9.4-8.2,12
            c-3.1,2.6-7.1,3.8-12.1,3.8c-0.9,0-1.9,0-2.9-0.1c-1-0.1-1.9-0.2-2.6-0.4v-9.2c0.8,0.2,1.6,0.3,2.3,0.4c0.7,0,1.5,0.1,2.2,0.1
            c2.2,0,4.2-0.6,6-1.8C447.8,336.9,449.3,334.9,450.6,332z"/>
        <path class="st0" d="M490.9,327.5v-7.7l29.6-36.3h-29.3v-8.9h42.4v7.6l-29.7,36.4h30.3v8.9H490.9z"/>
        <path class="st0" d="M539.3,301c0-3.7,0.7-7.3,2-10.6c1.4-3.3,3.2-6.2,5.6-8.7c2.4-2.5,5.2-4.4,8.4-5.8c3.2-1.4,6.7-2.1,10.5-2.1
            c3.6,0,7,0.7,10.1,2.1c3.2,1.4,5.9,3.4,8.1,5.8c2.3,2.5,4,5.4,5.4,8.8c1.3,3.4,2,7,2,10.9v3h-41.8c0.7,4.4,2.7,8,6,10.9
            c3.3,2.9,7.3,4.3,11.9,4.3c2.6,0,5-0.4,7.4-1.2c2.4-0.8,4.4-2,6-3.4l6.7,6.6c-3.1,2.4-6.3,4.2-9.6,5.3c-3.3,1.1-6.9,1.7-10.9,1.7
            c-3.9,0-7.5-0.7-10.9-2.1c-3.4-1.4-6.3-3.3-8.8-5.8c-2.5-2.4-4.5-5.3-5.9-8.7C540,308.5,539.3,304.9,539.3,301z M565.6,282.5
            c-4,0-7.5,1.3-10.4,4c-2.9,2.6-4.8,6-5.5,10.2h31.4c-0.7-4-2.5-7.4-5.4-10.1C572.8,283.9,569.4,282.5,565.6,282.5z"/>
        <path class="st0" d="M601.2,327.5v-52.9h10.4v6.6c1.7-2.6,3.9-4.6,6.4-5.8c2.6-1.2,5.2-1.9,8-1.9c1.2,0,2.2,0.1,3.1,0.2
            c0.9,0.1,1.6,0.3,2.3,0.6v9.4c-0.8-0.3-1.8-0.5-2.9-0.8c-1.1-0.2-2.2-0.4-3.3-0.4c-2.8,0-5.4,0.7-7.8,2.2
            c-2.4,1.5-4.4,3.9-5.8,7.3v35.5H601.2z"/>
    </g>
    <g>
        <g>
            <path class="st1" d="M129,85c12.5,0,30.6-2.6,30.6-17.5c0-1.2,0-2.3-0.3-3.4l-7.4-32.4c-1.7-7.1-3.2-10.3-15.7-16.6
                C126.4,10.2,105.3,2,99,2c-5.8,0-7.5,7.5-14.4,7.5c-6.7,0-11.6-5.6-17.9-5.6c-6,0-9.9,4.1-12.9,12.5c0,0-8.4,23.7-9.5,27.2
                C44,44.3,44,45,44,45.5C44,54.8,80.3,85,129,85 M161.5,73.6c1.7,8.2,1.7,9.1,1.7,10.1c0,14-15.7,21.8-36.4,21.8
                C80,105.5,39.1,78.1,39.1,60c0-2.8,0.6-5.4,1.5-7.3C23.8,53.5,2,56.5,2,75.7C2,107.2,76.6,146,135.7,146
                c45.3,0,56.7-20.5,56.7-36.6C192.3,96.6,181.4,82.2,161.5,73.6"/>
            <path d="M161.5,73.6c1.7,8.2,1.7,9.1,1.7,10.1c0,14-15.7,21.8-36.4,21.8C80,105.5,39.1,78.1,39.1,60c0-2.8,0.6-5.4,1.5-7.3
                l3.7-9.1C44,44.3,44,45,44,45.5C44,54.8,80.3,85,129,85c12.5,0,30.6-2.6,30.6-17.5c0-1.2,0-2.3-0.3-3.4L161.5,73.6z"/>
        </g>
        <path class="st0" d="M581.2,94.3c0,11.9,7.2,17.7,20.2,17.7c3.2,0,8.6-0.7,11.9-1.7V96.5c-2.8,0.8-4.9,1.2-7.7,1.2
            c-5.4,0-7.4-1.7-7.4-6.7V69.8h15.6V55.6h-15.6v-18l-17,3.7v14.3H570v14.2h11.3V94.3z M528.3,94.6c0-3.7,3.7-5.5,9.3-5.5
            c3.7,0,7,0.5,10.1,1.3v7.2c-3.2,1.8-6.8,2.6-10.6,2.6C531.6,100.2,528.3,98.1,528.3,94.6 M533.5,112.2c6,0,10.8-1.3,15.4-4.3v3.4
            h16.8V75.6c0-13.6-9.1-21-24.4-21c-8.5,0-16.9,2-26,6.1l6.1,12.5c6.5-2.7,12-4.4,16.8-4.4c7,0,10.6,2.7,10.6,8.3v2.7
            c-4-1.1-8.2-1.6-12.6-1.6c-14.3,0-22.9,6-22.9,16.7C513.3,104.7,521.1,112.2,533.5,112.2 M441.1,111.2h18.1V82.4h30.3v28.8h18.1
            V37.6h-18.1v28.3h-30.3V37.6h-18.1V111.2z M372.1,83.4c0-8,6.3-14.1,14.6-14.1c4.6,0,8.8,1.6,11.8,4.3V93c-3,2.9-7,4.4-11.8,4.4
            C378.5,97.5,372.1,91.4,372.1,83.4 M398.7,111.2h16.8V33.9l-17,3.7v20.9c-4.2-2.4-9-3.7-14.2-3.7c-16.2,0-28.9,12.5-28.9,28.5
            c0,16,12.5,28.6,28.4,28.6c5.5,0,10.6-1.7,14.9-4.8V111.2z M321.5,68.5c5.4,0,9.9,3.5,11.7,8.8H310
            C311.7,71.8,315.9,68.5,321.5,68.5 M292.8,83.5c0,16.2,13.3,28.8,30.3,28.8c9.4,0,16.2-2.5,23.2-8.4l-11.3-10
            c-2.6,2.7-6.5,4.2-11.1,4.2c-6.3,0-11.5-3.5-13.7-8.8h39.6V85c0-17.7-11.9-30.4-28.1-30.4C305.6,54.7,292.8,67.3,292.8,83.5
             M263.5,53.1c6,0,9.4,3.8,9.4,8.3s-3.4,8.3-9.4,8.3h-17.9V53.1H263.5z M227.5,111.2h18.1V84.4h13.8l13.9,26.8h20.2l-16.2-29.4
            c8.7-3.8,13.9-11.7,13.9-20.7c0-13.3-10.4-23.5-26-23.5h-37.7V111.2z"/>
    </g>
</g>
</svg>